<?xml version="1.0" standalone="no"?>
<!DOCTYPE svg PUBLIC "-//W3C//DTD SVG 1.1//EN" "http://www.w3.org/Graphics/SVG/1.1/DTD/svg11.dtd" >
<svg xmlns="http://www.w3.org/2000/svg" xmlns:xlink="http://www.w3.org/1999/xlink" version="1.1">
<metadata></metadata>
<defs>
<font id="futurabookcregular" horiz-adv-x="1163" >
<font-face units-per-em="2048" ascent="1536" descent="-512" />
<missing-glyph horiz-adv-x="477" />
<glyph horiz-adv-x="0" />
<glyph unicode="&#xd;" horiz-adv-x="681" />
<glyph unicode=" "  horiz-adv-x="477" />
<glyph unicode="&#x09;" horiz-adv-x="477" />
<glyph unicode="&#xa0;" horiz-adv-x="477" />
<glyph unicode="!" horiz-adv-x="573" d="M184 82q0 41 31 71.5t72 30.5t71.5 -30.5t30.5 -71.5t-30.5 -71.5t-71.5 -30.5t-72 30.5t-31 71.5zM213 276v1090h147v-1090h-147z" />
<glyph unicode="&#x22;" horiz-adv-x="675" d="M111 1366h163l-26 -549h-111zM401 1366h164l-26 -549h-111z" />
<glyph unicode="#" horiz-adv-x="1228" d="M70 424l20 135h225l41 272h-225l21 136h225l61 399h150l-62 -399h279l61 399h150l-62 -399h226l-21 -136h-225l-41 -272h225l-20 -135h-226l-65 -424h-150l66 424h-279l-65 -424h-150l66 424h-225zM465 559h278l41 272h-278z" />
<glyph unicode="$" d="M158 328l147 41q14 -109 82 -174q70 -72 160 -76v561q-147 59 -225 133q-94 88 -95 223q0 143 92.5 239.5t227.5 108.5v179h123v-179q86 -8 155 -57q82 -57 131 -151l-120 -80q-31 61 -78 102q-39 35 -88 43v-455q162 -63 239 -143q96 -98 97 -248q0 -147 -90.5 -267 t-245.5 -144v-191h-123v182q-154 6 -262 111q-94 94 -127 242zM379 1038q0 -72 51 -123q45 -44 117 -73v399q-80 -12 -124 -69.5t-44 -133.5zM670 127q82 23 131 98.5t49 163.5q0 96 -66 162q-42 43 -114 72v-496z" />
<glyph unicode="%" horiz-adv-x="1454" d="M68 1081q0 125 86 211t210.5 86t211 -86t86.5 -211t-86.5 -211t-211 -86t-210.5 86t-86 211zM190 1081.5q0 -75.5 51.5 -130t123.5 -54.5q74 0 124 54.5t50 130t-50.5 130t-123.5 54.5q-72 0 -123.5 -54.5t-51.5 -130zM289 20l796 1373l80 -45l-796 -1375zM793 283 q0 125 86 211t210.5 86t210.5 -86t86 -211t-86 -211t-210.5 -86t-210.5 86t-86 211zM915 282.5q0 -75.5 51.5 -130t123.5 -54.5q74 0 124 54.5t50 130t-50.5 130t-123.5 54.5q-72 0 -123.5 -54.5t-51.5 -130z" />
<glyph unicode="&#x26;" horiz-adv-x="1302" d="M111 354q0 160 122 283q63 63 230 170q-135 174 -135 293q0 117 78.5 203t218.5 86q135 0 211.5 -82t76.5 -193q0 -137 -127 -248q-14 -12 -37.5 -29.5t-72.5 -58.5l285 -366q104 110 155 180l111 -92q-68 -92 -174 -203l229 -297h-188l-148 190q-94 -94 -212 -154.5 t-228 -60.5q-168 0 -281.5 109t-113.5 270zM262 356q0 -102 68.5 -171.5t173.5 -69.5q153 0 350 188l-303 391q-109 -68 -193 -141q-96 -86 -96 -197zM471 1108q0 -59 55 -135l62 -84l90 69q92 74 92 158q0 68 -44 104.5t-103 36.5q-63 0 -107.5 -43t-44.5 -106z" />
<glyph unicode="'" horiz-adv-x="385" d="M111 1366h163l-26 -549h-111z" />
<glyph unicode="(" horiz-adv-x="602" d="M164 567.5q0 352.5 78 628.5q43 155 100 307l129 -59q-66 -176 -94 -305q-61 -252 -61.5 -571.5t61.5 -571.5q29 -129 94 -305l-129 -60q-57 152 -100 308q-78 276 -78 628.5z" />
<glyph unicode=")" horiz-adv-x="602" d="M131 -309q66 176 94 305q61 252 61.5 571.5t-61.5 571.5q-29 129 -94 305l129 59q57 -152 100 -307q78 -276 78 -628.5t-78 -628.5q-43 -156 -100 -308z" />
<glyph unicode="*" d="M242 1198l43 129l237 -88l-10 254h139l-10 -254l238 88l43 -129l-246 -70l158 -198l-111 -80l-141 211l-142 -211l-110 80l157 198z" />
<glyph unicode="+" horiz-adv-x="1024" d="M68 614v136h370v352h148v-352h370v-136h-370v-352h-148v352h-370z" />
<glyph unicode="," horiz-adv-x="561" d="M49 -272l168 473l135 -49l-207 -463z" />
<glyph unicode="-" horiz-adv-x="614" d="M82 360v152h450v-152h-450z" />
<glyph unicode="." horiz-adv-x="466" d="M131 82q0 41 31 71.5t71.5 30.5t71.5 -30.5t31 -71.5t-31 -71.5t-71.5 -30.5t-71.5 30.5t-31 71.5z" />
<glyph unicode="/" horiz-adv-x="1187" d="M0 -311l1028 1847l119 -61l-1028 -1844z" />
<glyph unicode="0" d="M94 682q0 303 137 502q141 205 350.5 205t350.5 -205q137 -199 137 -502t-137 -502q-141 -205 -350 -205t-351 205q-137 199 -137 502zM246 682q0 -256 100 -416q94 -152 235.5 -151.5t235.5 151.5q100 160 100.5 416t-100.5 416q-94 151 -235.5 151t-235.5 -151 q-100 -160 -100 -416z" />
<glyph unicode="1" d="M315 1223l80 143h301v-1366h-151v1223h-230z" />
<glyph unicode="2" d="M102 0l498 575q127 150 160 199q76 109 76 209q0 117 -76 191.5t-197 74.5q-147 0 -227 -121q-43 -66 -45 -161h-152q8 174 103 282q123 139 323 140q182 0 302 -116t120 -292q0 -137 -108 -293q-55 -76 -187 -227l-284 -322h577v-139h-883z" />
<glyph unicode="3" d="M131 354h152q10 -84 49 -137q70 -102 211 -102q113 0 190.5 80.5t77.5 195.5q0 168 -135 230q-68 33 -156 28v135q88 -6 156 29q115 59 115 203q0 100 -57.5 166.5t-176.5 66.5q-115 0 -176 -78q-47 -61 -53 -143h-152q6 109 64 201q102 160 317 160q182 0 283.5 -109 t101.5 -260q0 -215 -176 -303q27 -10 52.5 -27.5t62.5 -54.5t59.5 -101.5t22.5 -146.5q0 -186 -120 -299t-300 -113q-121 0 -225.5 56.5t-155.5 179.5q-27 66 -31 143z" />
<glyph unicode="4" d="M41 223l852 1219v-1080h168v-139h-168v-223h-152v223h-700zM309 362h432v617z" />
<glyph unicode="5" d="M70 221l120 86q31 -61 93 -110q100 -82 221 -82q143 0 239.5 102t96.5 248q0 147 -95.5 241.5t-240.5 94.5q-129 0 -264 -94l198 659h543v-139h-438l-88 -295q35 8 86 8q203 0 326.5 -135t123.5 -338q0 -221 -144.5 -356.5t-352.5 -135.5q-176 0 -306 107 q-74 63 -118 139z" />
<glyph unicode="6" d="M111 440q0 156 112 314l465 645l115 -86l-314 -436q57 18 121 18q195 0 319 -129t124 -322q0 -205 -132.5 -337t-336.5 -132q-152 0 -263.5 73t-160.5 176.5t-49 215.5zM262 440q0 -139 89.5 -232t230.5 -93q139 0 229 93t90 232q0 137 -91 226.5t-230.5 89.5 t-228.5 -90.5t-89 -225.5z" />
<glyph unicode="7" d="M106 47l777 1180h-748v139h1004l-914 -1399z" />
<glyph unicode="8" d="M164 377q0 242 207 334q-166 96 -166 299q0 156 100.5 267.5t276.5 111.5t276 -112t100 -267q1 -203 -165 -299q207 -92 206 -334q0 -170 -109.5 -286t-308 -116t-308 116t-109.5 286zM315 381q0 -117 74 -191.5t192.5 -74.5t192.5 74.5t74 191.5q0 115 -75 187.5 t-191.5 72.5t-191.5 -72.5t-75 -187.5zM348 1008q0 -100 66.5 -168t167 -68t167 67.5t66.5 168.5q0 109 -68.5 175t-165 66t-165 -66.5t-68.5 -174.5z" />
<glyph unicode="9" d="M111 920q0 205 132 337t337 132q152 0 263 -73t160.5 -176.5t49.5 -215.5q0 -158 -113 -314l-465 -643l-115 84l314 436q-59 -18 -121 -18q-195 0 -318.5 129t-123.5 322zM262 924q0 -137 91 -226.5t230.5 -89.5t228.5 90t89 226q0 139 -89 232t-230 93 q-139 0 -229.5 -93t-90.5 -232z" />
<glyph unicode=":" horiz-adv-x="466" d="M131 82q0 41 31 71.5t71.5 30.5t71.5 -30.5t31 -71.5t-31 -71.5t-71.5 -30.5t-71.5 30.5t-31 71.5zM131 768q0 41 31 71.5t71.5 30.5t71.5 -30.5t31 -71.5t-31 -71.5t-71.5 -30.5t-71.5 30.5t-31 71.5z" />
<glyph unicode=";" horiz-adv-x="561" d="M49 -272l168 473l135 -49l-207 -463zM160 768q0 41 30.5 71.5t71.5 30.5t72 -30.5t31 -71.5t-31 -71.5t-72 -30.5t-71.5 30.5t-30.5 71.5z" />
<glyph unicode="&#x3c;" horiz-adv-x="1024" d="M68 612v127l888 416v-147l-731 -332l731 -332v-147z" />
<glyph unicode="=" horiz-adv-x="1024" d="M68 471v135h888v-135h-888zM68 786v136h888v-136h-888z" />
<glyph unicode="&#x3e;" horiz-adv-x="1024" d="M68 197v147l731 332l-731 332v147l888 -416v-127z" />
<glyph unicode="?" horiz-adv-x="892" d="M117 1071q0 145 92 228t235 83q164 0 248 -96t84 -229q0 -229 -227 -307q-18 -6 -53 -16.5t-59.5 -19.5t-51.5 -24q-84 -43 -84 -133q0 -66 41 -105.5t102 -39.5q80 0 119 61q29 50 29 113h147q4 -113 -47 -189q-37 -55 -103.5 -90t-142.5 -35q-129 0 -212.5 84 t-83.5 211q0 174 169 248q39 16 89.5 32.5t85.5 29.5q59 25 95 62.5t36 115.5q0 90 -47.5 139t-133.5 49q-16 0 -36.5 -4t-57.5 -19.5t-61.5 -58.5t-24.5 -106q0 -35 12 -78h-151q-8 43 -8 94zM344 82q0 41 31 71.5t71.5 30.5t71.5 -30.5t31 -71.5t-31 -71.5t-71.5 -30.5 t-71.5 30.5t-31 71.5z" />
<glyph unicode="@" horiz-adv-x="1501" d="M68 678q0 297 205.5 501.5t504.5 204.5q268 0 457.5 -168.5t189.5 -437.5q0 -205 -103 -344t-230 -139q-63 0 -104.5 38t-45.5 99q-94 -145 -256 -145q-129 0 -208 94t-79 235q0 170 101.5 293t257.5 123q88 0 144 -44t81 -114l27 132h106q-78 -330 -96 -510v-17 q6 -94 76 -94q80 0 155.5 110.5t75.5 280.5q0 227 -158.5 368.5t-388.5 141.5q-254 0 -431 -177t-177 -433q0 -104 33 -204.5t102.5 -193t196.5 -149.5t295 -57q225 0 428 94l30 -94q-205 -98 -460 -99q-319 0 -524 197t-205 508zM518 621q0 -104 56.5 -164t134.5 -60 q104 0 169.5 97.5t65.5 228.5q0 100 -51 149.5t-125 49.5q-104 0 -177 -91.5t-73 -209.5z" />
<glyph unicode="A" horiz-adv-x="1273" d="M16 0l629 1432l612 -1432h-167l-160 385h-582l-164 -385h-168zM408 528h462l-229 547z" />
<glyph unicode="B" horiz-adv-x="1085" d="M176 0v1366h246q205 0 313 -86q123 -94 123 -283q0 -176 -135 -268q131 -33 195.5 -132t64.5 -212q0 -92 -40 -170t-99 -125q-115 -90 -328 -90h-340zM328 143h174q166 0 239 58q90 66 90 188q0 137 -116 201q-74 41 -232 41h-155v-488zM328 766h114q31 0 59.5 3 t68.5 16.5t70 36t50.5 67.5t20.5 104q0 63 -24.5 109.5t-55.5 69t-74 35t-65.5 14.5t-45.5 2h-118v-457z" />
<glyph unicode="C" horiz-adv-x="1323" d="M102 678q0 305 204 508t511 203q226 -1 404 -136v-188q-82 82 -179 127q-117 53 -235 53q-236 0 -392.5 -165t-156.5 -404q0 -258 171 -407.5t380 -149.5q131 0 254 63q86 43 158 115v-188q-186 -133 -412 -134q-303 0 -505 203t-202 500z" />
<glyph unicode="D" horiz-adv-x="1294" d="M176 0v1366h279q315 0 503 -160q233 -195 234 -524q0 -319 -240 -524q-98 -84 -210.5 -121t-288.5 -37h-277zM328 143h133q244 0 391 123q184 156 184 416q0 246 -157.5 393.5t-417.5 147.5h-133v-1080z" />
<glyph unicode="E" horiz-adv-x="987" d="M176 0v1366h709v-143h-557v-406h540v-143h-540v-531h557v-143h-709z" />
<glyph unicode="F" horiz-adv-x="888" d="M176 0v1366h623v-143h-471v-404h454v-143h-454v-676h-152z" />
<glyph unicode="G" horiz-adv-x="1552" d="M102 682q0 299 204 503t509 204q242 0 418 -136q90 -70 158 -161l-113 -103q-59 84 -129 141q-141 115 -332 115q-244 0 -401.5 -161.5t-157.5 -403.5q0 -176 86 -308t210 -192.5t259 -60.5t246.5 62.5t171.5 166.5q51 88 55 195h-405v143h569v-33q0 -254 -131 -432 q-182 -246 -508 -246q-303 0 -506 204t-203 503z" />
<glyph unicode="H" horiz-adv-x="1355" d="M176 0v1366h152v-555h700v555h152v-1366h-152v668h-700v-668h-152z" />
<glyph unicode="I" horiz-adv-x="503" d="M176 0v1366h152v-1366h-152z" />
<glyph unicode="J" horiz-adv-x="626" d="M-94 -41l84 119q84 -76 157.5 -76t110.5 51q41 51 41 209v1104h152v-1104q0 -129 -26 -214t-108 -140q-76 -49 -167 -49q-129 0 -244 100z" />
<glyph unicode="K" d="M176 0v1366h152v-586l581 586h205l-639 -637l660 -729h-209l-559 627l-39 -39v-588h-152z" />
<glyph unicode="L" horiz-adv-x="733" d="M176 0v1366h152v-1223h377v-143h-529z" />
<glyph unicode="M" horiz-adv-x="1767" d="M129 0l227 1442l525 -1153l534 1155l213 -1444h-155l-130 950l-464 -1007l-459 1007l-135 -950h-156z" />
<glyph unicode="N" horiz-adv-x="1568" d="M176 0v1423l1065 -1116v1059h152v-1427l-1065 1116v-1055h-152z" />
<glyph unicode="O" horiz-adv-x="1626" d="M102 682q0 303 207 505t504 202t504 -202t207 -505q0 -301 -206 -504t-505 -203t-505 203t-206 504zM258 682q0 -236 162 -399.5t393 -163.5t393 163.5t162 399.5t-162 399.5t-393 163.5t-393 -163.5t-162 -399.5z" />
<glyph unicode="P" horiz-adv-x="933" d="M176 0v1366h248q233 0 344 -96q125 -106 125 -293q0 -160 -107.5 -271.5t-324.5 -111.5h-133v-594h-152zM328 737h125q135 0 211.5 65.5t76.5 182.5q0 238 -301 238h-112v-486z" />
<glyph unicode="Q" horiz-adv-x="1626" d="M102 682q0 303 207 505t504 202t504 -202t207 -505q0 -287 -193 -489l201 -207h-197l-110 114q-184 -125 -412 -125q-297 0 -504 203t-207 504zM258 682q0 -236 162 -399.5t393 -163.5q166 0 303 90l-330 340h197l240 -246q145 158 145 379q0 233 -163 398t-392 165 q-231 0 -393 -163.5t-162 -399.5z" />
<glyph unicode="R" horiz-adv-x="1028" d="M176 0v1366h219q221 0 332 -76q150 -100 150 -303q0 -158 -95.5 -262t-249.5 -115l435 -610h-185l-415 598h-39v-598h-152zM328 733h96q141 0 221 65.5t80 184.5q0 139 -109 201q-70 39 -196 39h-92v-490z" />
<glyph unicode="S" horiz-adv-x="1060" d="M102 328l148 41q14 -102 82 -174q76 -76 196 -76q131 0 203 78.5t72 191.5q0 98 -68 160q-39 37 -164 94l-122 57q-125 57 -183 113q-94 90 -94 223q0 158 107.5 255.5t275.5 97.5q127 0 219 -62q84 -55 133 -151l-121 -80q-33 63 -79 102q-61 47 -154 47 q-102 0 -165.5 -58.5t-63.5 -152.5q0 -70 51 -119q41 -41 143 -86l131 -57q145 -63 211 -129q98 -98 98 -248q0 -186 -122.5 -303t-309.5 -117q-184 0 -297 111q-92 90 -127 242z" />
<glyph unicode="T" horiz-adv-x="872" d="M29 1223v143h815v-143h-332v-1223h-152v1223h-331z" />
<glyph unicode="U" horiz-adv-x="1323" d="M176 487v879h152v-838q0 -78 3 -120.5t28.5 -105t76.5 -105.5q92 -78 225.5 -78t225.5 78q51 43 76.5 105.5t28.5 105.5t3 120v838h152v-879q0 -209 -86 -327q-63 -86 -166.5 -135.5t-233 -49.5t-232.5 49.5t-167 135.5q-86 119 -86 327z" />
<glyph unicode="V" horiz-adv-x="1138" d="M16 1366h168l385 -1042l385 1042h168l-553 -1448z" />
<glyph unicode="W" horiz-adv-x="1961" d="M16 1366h168l361 -1024l428 1094l405 -1094l400 1024h168l-574 -1438l-401 1094l-430 -1094z" />
<glyph unicode="X" horiz-adv-x="1032" d="M29 0l403 707l-366 659h172l282 -514l291 514h172l-375 -659l396 -707h-173l-313 561l-317 -561h-172z" />
<glyph unicode="Y" horiz-adv-x="1085" d="M16 1366h177l348 -610l352 610h176l-453 -778v-588h-151v588z" />
<glyph unicode="Z" horiz-adv-x="1097" d="M49 0l746 1223h-650v143h904l-746 -1223h725v-143h-979z" />
<glyph unicode="[" horiz-adv-x="593" d="M164 -360v1853h344v-135h-197v-1583h197v-135h-344z" />
<glyph unicode="\" horiz-adv-x="1187" d="M41 1475l119 61l1028 -1847l-119 -58z" />
<glyph unicode="]" horiz-adv-x="593" d="M86 -225h197v1583h-197v135h344v-1853h-344v135z" />
<glyph unicode="^" horiz-adv-x="1024" d="M53 748l363 618h192l363 -618h-160l-299 505l-299 -505h-160z" />
<glyph unicode="_" horiz-adv-x="1024" d="M0 -139h1024v-131h-1024v131z" />
<glyph unicode="`" horiz-adv-x="1024" d="M233 1294l152 70l215 -297l-90 -49z" />
<glyph unicode="a" horiz-adv-x="1077" d="M86 426q0 209 120 326.5t294 117.5q185 0 291 -141v121h147v-850h-147v119q-111 -143 -291 -144q-172 0 -293 119t-121 332zM238 426q0 -141 74.5 -230.5t203.5 -89.5t206 92.5t77 225.5q0 152 -86 233.5t-197 81.5q-117 0 -197.5 -83t-80.5 -230z" />
<glyph unicode="b" horiz-adv-x="1077" d="M139 0v1493h148v-762q113 139 291 139q190 0 301.5 -134t111.5 -316q-1 -184 -111 -314t-295 -131l-1 1q-186 0 -297 143v-119h-148zM279 422q0 -133 78.5 -224.5t205.5 -91.5q125 0 201 91.5t76 222.5q0 147 -84 233t-194.5 86t-196.5 -86t-86 -231z" />
<glyph unicode="c" horiz-adv-x="897" d="M86 420q0 195 129 322.5t326 127.5q147 0 264 -82v-176q-100 127 -266 127q-125 0 -213 -85t-88 -232.5t88 -231.5t211 -84q164 0 274 134v-177q-121 -88 -270 -88q-199 0 -327 126t-128 319z" />
<glyph unicode="d" horiz-adv-x="1077" d="M86 426q0 209 120 326.5t294 117.5q185 0 291 -141v764h147v-1493h-147v119q-111 -143 -291 -144q-172 0 -293 119t-121 332zM238 426q0 -141 74.5 -230.5t203.5 -89.5t206 92.5t77 225.5q0 152 -86 233.5t-197 81.5q-117 0 -197.5 -83t-80.5 -230z" />
<glyph unicode="e" horiz-adv-x="985" d="M86 420q0 195 111.5 322.5t300.5 127.5q213 0 321 -155q80 -115 80 -295v-25h-661q2 -129 79.5 -209t190.5 -80q100 0 174 62q57 49 88 117l123 -68q-43 -82 -105 -137q-117 -104 -282 -105q-172 0 -296 112t-124 333zM248 518h500q-18 100 -87 160.5t-163 60.5 q-92 0 -163 -62.5t-87 -158.5z" />
<glyph unicode="f" horiz-adv-x="491" d="M61 715v135h82v367q0 170 82 239q66 55 170 55q55 0 105 -18v-143q-45 18 -97 18q-68 0 -94 -45q-18 -31 -18 -123v-350h209v-135h-209v-715h-148v715h-82z" />
<glyph unicode="g" horiz-adv-x="1077" d="M86 426q0 209 120 326.5t294 117.5q185 0 291 -141v121h147v-832q0 -223 -82 -333q-117 -158 -340 -158q-188 0 -303 115q-111 111 -111 274h146q0 -102 65 -176q74 -82 205 -82q154 0 225 119q47 76 48 217v125q-111 -143 -291 -144q-172 0 -293 119t-121 332zM238 426 q0 -141 74.5 -230.5t203.5 -89.5t206 92.5t77 225.5q0 152 -86 233.5t-197 81.5q-117 0 -197.5 -83t-80.5 -230z" />
<glyph unicode="h" horiz-adv-x="962" d="M139 0v1493h148v-741q89 118 240 118h3q164 0 244 -116q49 -72 49 -228v-526h-147v522q0 104 -39 156q-47 61 -139 61q-94 0 -150 -65q-61 -72 -61 -230v-444h-148z" />
<glyph unicode="i" horiz-adv-x="425" d="M109 1171q0 43 30.5 74t73.5 31t73.5 -31t30.5 -74t-30.5 -73.5t-73.5 -30.5t-73.5 30.5t-30.5 73.5zM139 0v850h148v-850h-148z" />
<glyph unicode="j" horiz-adv-x="425" d="M109 1171q0 43 30.5 74t73.5 31t73.5 -31t30.5 -74t-30.5 -73.5t-73.5 -30.5t-73.5 30.5t-30.5 73.5zM139 -479v1329h148v-1329h-148z" />
<glyph unicode="k" horiz-adv-x="864" d="M139 0v1493h148v-958l311 315h193l-365 -365l430 -485h-192l-340 387l-37 -37v-350h-148z" />
<glyph unicode="l" horiz-adv-x="425" d="M139 0v1493h148v-1493h-148z" />
<glyph unicode="m" horiz-adv-x="1402" d="M139 0v850h148v-90q75 110 209 110h2q156 0 233 -137q88 137 256 137q276 0 277 -331v-539h-148v516q0 61 -7 103.5t-43 81t-101 38.5q-188 0 -189 -266v-473h-147v504q0 235 -155 235h-1q-186 0 -186 -276v-463h-148z" />
<glyph unicode="n" horiz-adv-x="962" d="M139 0v850h148v-98q89 118 240 118h3q164 0 244 -116q49 -72 49 -228v-526h-147v522q0 104 -39 156q-47 61 -139 61q-94 0 -150 -65q-61 -72 -61 -230v-444h-148z" />
<glyph unicode="o" horiz-adv-x="1073" d="M86 422q0 195 128 321.5t322.5 126.5t322.5 -127t128 -321q0 -193 -128 -320t-322.5 -127t-322.5 127t-128 320zM238 421.5q0 -147.5 88 -231.5t210.5 -84t211 84t88.5 232q0 150 -87 233.5t-212 83.5t-212 -85t-87 -232.5z" />
<glyph unicode="p" horiz-adv-x="1077" d="M139 -479v1329h148v-119q113 139 291 139q190 0 301.5 -134t111.5 -316q0 -184 -111 -314q-110 -131 -295 -131l-1 1q-186 0 -297 143v-598h-148zM279 422q0 -133 78.5 -224.5t205.5 -91.5q125 0 201 91.5t76 222.5q0 147 -84 233t-194.5 86t-196.5 -86t-86 -231z" />
<glyph unicode="q" horiz-adv-x="1077" d="M86 426q0 209 120 326.5t294 117.5q185 0 291 -141v121h147v-1329h-147v598q-111 -143 -291 -144q-172 0 -293 119t-121 332zM238 426q0 -141 74.5 -230.5t203.5 -89.5t206 92.5t77 225.5q0 152 -86 233.5t-197 81.5q-117 0 -197.5 -83t-80.5 -230z" />
<glyph unicode="r" horiz-adv-x="606" d="M139 0v850h148v-92q71 112 190 112h2q61 0 131 -34l-69 -134q-41 29 -86 29q-78 0 -119 -53q-49 -66 -49 -229v-449h-148z" />
<glyph unicode="s" horiz-adv-x="720" d="M74 193l127 53q51 -139 172 -140q68 0 103.5 41t35.5 95q0 29 -9 50t-30.5 37.5t-41 27t-56.5 26.5q-164 72 -207 125q-39 49 -39 125q0 111 68.5 174t179.5 63h2q159 0 231 -153l-121 -64q-35 86 -118 86q-43 0 -73 -24.5t-30 -71.5q0 -43 28 -64.5t110 -56.5 q162 -68 212 -131q45 -55 46 -137q0 -129 -83 -204t-210 -75q-25 0 -53.5 5.5t-79 22.5t-95.5 66.5t-69 123.5z" />
<glyph unicode="t" horiz-adv-x="438" d="M53 715v135h90v307h148v-307h147v-135h-147v-715h-148v715h-90z" />
<glyph unicode="u" horiz-adv-x="954" d="M139 338v512h148v-496q0 -129 41 -182q51 -66 149 -66t150 66q41 53 41 182v496h147v-512q0 -172 -78 -256q-100 -106 -260 -106q-1 0 -1 -1q-159 0 -259 107q-78 84 -78 256z" />
<glyph unicode="v" horiz-adv-x="868" d="M16 850h164l254 -574l254 574h164l-418 -905z" />
<glyph unicode="w" horiz-adv-x="1396" d="M16 850h164l252 -578l266 643l265 -643l254 578h163l-422 -909l-262 634l-262 -634z" />
<glyph unicode="x" horiz-adv-x="929" d="M16 0l363 455l-309 395h180l219 -289l223 289h180l-311 -397l352 -453h-180l-268 346l-268 -346h-181z" />
<glyph unicode="y" horiz-adv-x="942" d="M16 850h168l301 -608l277 608h164l-629 -1329h-164l275 559z" />
<glyph unicode="z" horiz-adv-x="942" d="M16 0l615 715h-496v135h791l-615 -715h590v-135h-885z" />
<glyph unicode="{" horiz-adv-x="1026" d="M299 446v119q57 4 90 58q27 45 27 125v362q0 172 98 238q61 41 191 41h55v-125h-31q-88 0 -127 -37.5t-39 -141.5v-348q0 -98 -26 -145q-33 -55 -99 -86q66 -31 99 -86q27 -47 26 -146v-348q0 -104 39 -141t127 -37h31v-125h-55q-129 0 -191 41q-98 66 -98 238v362 q0 80 -27 125q-33 53 -90 57z" />
<glyph unicode="|" horiz-adv-x="1024" d="M438 -512v2048h148v-2048h-148z" />
<glyph unicode="}" horiz-adv-x="1026" d="M266 -252h31q88 0 127 37t39 141v348q0 98 26 146q33 55 99 86q-66 31 -99 86q-27 47 -26 145v348q0 104 -39 141.5t-127 37.5h-31v125h56q129 0 190 -41q98 -66 98 -238v-362q0 -80 27 -125q33 -53 90 -58v-119q-57 -4 -90 -57q-27 -45 -27 -125v-362q0 -172 -98 -238 q-61 -41 -190 -41h-56v125z" />
<glyph unicode="~" horiz-adv-x="1368" d="M193 1247q47 100 98 160q70 78 178 78q86 0 231 -70q141 -66 195 -65q76 0 125 49q38 35 65 90l91 -53q-39 -90 -103 -150q-80 -80 -196 -80q-70 0 -222 70q-141 66 -194 65q-59 0 -107 -41q-39 -33 -71 -106z" />
<glyph unicode="&#xa4;" horiz-adv-x="1368" d="M111 1221l82 82l194 -193q121 104 297 104t297 -104l195 193l81 -82l-194 -195q104 -123 104 -291q0 -170 -104 -291l192 -192l-81 -82l-193 190q-121 -104 -297 -104t-297 104l-192 -190l-82 82l192 192q-104 121 -104 291t104 291zM340 735.5q0 -151.5 98.5 -250 t245.5 -98.5t245.5 98.5t98.5 250t-98.5 249.5t-245.5 98t-245.5 -98t-98.5 -249.5z" />
<glyph unicode="&#xa6;" horiz-adv-x="1024" d="M438 225h148v-737h-148v737zM438 799v737h148v-737h-148z" />
<glyph unicode="&#xa7;" d="M207 569q0 236 207 322q-172 90 -172 278q0 141 93 240.5t265 99.5q231 0 315 -196q37 -91 35 -191h-147q2 86 -35 158q-51 94 -166 94q-96 0 -154.5 -60.5t-58.5 -148.5q0 -43 18.5 -78.5t37 -55t65.5 -43t61.5 -30t67.5 -24.5q150 -53 209 -105q109 -94 108 -254 q0 -109 -55 -191.5t-151 -127.5q174 -78 174 -279q0 -143 -90.5 -247.5t-268.5 -104.5q-125 0 -207 56.5t-116 144.5q-33 80 -29 178h147q0 -94 39 -156q55 -88 168 -88q96 0 150.5 56.5t54.5 154.5q0 90 -48 136.5t-132 78.5q-8 2 -51 17.5t-62.5 25t-55.5 24.5t-63.5 33.5 t-50.5 39.5q-102 92 -102 243zM358 573.5q0 -94.5 64.5 -159t159 -64.5t159 64.5t64.5 159t-64.5 159t-159 64.5t-159 -64.5t-64.5 -159z" />
<glyph unicode="&#xa9;" horiz-adv-x="1515" d="M51 682q0 293 208 500t499 207t498.5 -207t207.5 -500q0 -291 -207.5 -498t-498.5 -207t-499 207t-208 498zM166 682q0 -244 173 -417t419 -173t419 173t173 417q0 246 -173 419t-419 173t-419 -173t-173 -419zM379 672q0 180 122 302t304 122q142 0 248 -78v-164 q-49 61 -119 90t-131 29q-117 0 -200 -81t-83 -218q0 -139 84 -217t197 -78q154 0 258 125v-166q-113 -82 -254 -82q-184 0 -305 116.5t-121 299.5z" />
<glyph unicode="&#xab;" horiz-adv-x="880" d="M74 434l307 385l94 -76l-246 -309l246 -299l-94 -74zM377 434l307 385l94 -76l-246 -309l246 -299l-94 -74z" />
<glyph unicode="&#xac;" horiz-adv-x="1024" d="M68 416v131h888v-547h-143v416h-745z" />
<glyph unicode="&#xad;" horiz-adv-x="614" d="M82 360v152h450v-152h-450z" />
<glyph unicode="&#xae;" horiz-adv-x="1540" d="M68 680q0 301 200.5 501.5t501.5 200.5t502 -200.5t201 -501.5t-201 -502t-502 -201t-501.5 201t-200.5 502zM182 680q0 -252 168 -420t420 -168t420 168t168 420t-168 420t-420 168t-420 -168t-168 -420zM555 297v766h139q295 0 295 -219q0 -86 -55 -144.5t-143 -68.5 l264 -334h-140l-249 324v-324h-111zM666 719h45q168 0 168 121q0 35 -12.5 59.5t-28 36.5t-42 19.5t-45 8.5t-44.5 1h-41v-246z" />
<glyph unicode="&#xb0;" horiz-adv-x="1009" d="M221 1087.5q0 120.5 81 201.5t202 81t201.5 -81t80.5 -201.5t-80.5 -201.5t-201.5 -81t-202 81t-81 201.5zM324 1087.5q0 -88.5 56 -138.5t123.5 -50t124 50t56.5 138.5t-56.5 138.5t-124 50t-123.5 -50t-56 -138.5z" />
<glyph unicode="&#xb1;" horiz-adv-x="1024" d="M68 137v135h888v-135h-888zM68 707v135h370v350h148v-350h370v-135h-370v-351h-148v351h-370z" />
<glyph unicode="&#xb5;" horiz-adv-x="1071" d="M139 -348v1198h148v-424q0 -164 61.5 -242t179.5 -78q135 0 207 121q49 80 49 217v406h148v-850h-148v176q-33 -90 -100.5 -145.5t-159.5 -55.5q-70 0 -127 35t-76.5 61.5t-33.5 53.5v-473h-148z" />
<glyph unicode="&#xb6;" horiz-adv-x="1187" d="M45 999q0 102 52.5 195.5t168.5 136.5q90 35 230 35h548v-119h-122v-1450h-127v1450h-217v-1450h-127v846h-31q-164 0 -269.5 100.5t-105.5 255.5z" />
<glyph unicode="&#xb7;" horiz-adv-x="409" d="M74 696.5q0 53.5 39 92t92 38.5t92 -38.5t39 -92t-39 -92.5t-92 -39t-92 39t-39 92.5z" />
<glyph unicode="&#xbb;" horiz-adv-x="880" d="M102 137l246 309l-246 299l95 74l307 -373l-307 -385zM406 137l245 309l-245 299l94 74l307 -373l-307 -385z" />
<glyph unicode="&#x2000;" horiz-adv-x="781" />
<glyph unicode="&#x2001;" horiz-adv-x="1563" />
<glyph unicode="&#x2002;" horiz-adv-x="781" />
<glyph unicode="&#x2003;" horiz-adv-x="1563" />
<glyph unicode="&#x2004;" horiz-adv-x="521" />
<glyph unicode="&#x2005;" horiz-adv-x="390" />
<glyph unicode="&#x2006;" horiz-adv-x="260" />
<glyph unicode="&#x2007;" horiz-adv-x="260" />
<glyph unicode="&#x2008;" horiz-adv-x="195" />
<glyph unicode="&#x2009;" horiz-adv-x="312" />
<glyph unicode="&#x200a;" horiz-adv-x="86" />
<glyph unicode="&#x2010;" horiz-adv-x="614" d="M82 360v152h450v-152h-450z" />
<glyph unicode="&#x2011;" horiz-adv-x="614" d="M82 360v152h450v-152h-450z" />
<glyph unicode="&#x2012;" horiz-adv-x="614" d="M82 360v152h450v-152h-450z" />
<glyph unicode="&#x2013;" horiz-adv-x="1105" d="M102 371v131h902v-131h-902z" />
<glyph unicode="&#x2014;" horiz-adv-x="1556" d="M102 371v131h1352v-131h-1352z" />
<glyph unicode="&#x2018;" horiz-adv-x="540" d="M119 971l207 463l96 -39l-170 -473z" />
<glyph unicode="&#x2019;" horiz-adv-x="630" d="M119 961l166 473l137 -50l-207 -462z" />
<glyph unicode="&#x201a;" horiz-adv-x="630" d="M119 -272l166 473l137 -49l-207 -463z" />
<glyph unicode="&#x201c;" horiz-adv-x="839" d="M119 971l207 463l96 -39l-170 -473zM418 971l207 463l96 -39l-166 -473z" />
<glyph unicode="&#x201d;" horiz-adv-x="929" d="M119 961l166 473l137 -50l-207 -462zM418 961l170 473l133 -50l-207 -462z" />
<glyph unicode="&#x201e;" horiz-adv-x="929" d="M119 -272l166 473l137 -49l-207 -463zM418 -272l170 473l133 -49l-207 -463z" />
<glyph unicode="&#x2022;" horiz-adv-x="1368" d="M397 696.5q0 118.5 84 202.5t203 84t203 -84t84 -202.5t-84 -202.5t-203 -84t-203 84t-84 202.5z" />
<glyph unicode="&#x2026;" horiz-adv-x="1527" d="M154 82q0 41 30.5 71.5t71.5 30.5t71.5 -30.5t30.5 -71.5t-30.5 -71.5t-71.5 -30.5t-71.5 30.5t-30.5 71.5zM662 82q0 41 30.5 71.5t71.5 30.5t71.5 -30.5t30.5 -71.5t-30.5 -71.5t-71.5 -30.5t-71.5 30.5t-30.5 71.5zM1169 82q0 41 31 71.5t72 30.5t71.5 -30.5 t30.5 -71.5t-30.5 -71.5t-71.5 -30.5t-72 30.5t-31 71.5z" />
<glyph unicode="&#x202f;" horiz-adv-x="312" />
<glyph unicode="&#x2039;" horiz-adv-x="577" d="M74 434l307 385l94 -76l-246 -309l246 -299l-94 -74z" />
<glyph unicode="&#x203a;" horiz-adv-x="577" d="M102 137l246 309l-246 299l95 74l307 -373l-307 -385z" />
<glyph unicode="&#x205f;" horiz-adv-x="390" />
<glyph unicode="&#x20ac;" d="M55 496l43 114h97q-4 37 -5 78q0 12 1.5 38t1.5 34h-138l43 114h107q35 236 164 375.5t364 139.5q221 -1 338 -97v-149q-117 113 -321 112q-174 0 -273.5 -105.5t-122.5 -275.5h627l-43 -114h-600q0 -8 -1 -34t-1 -38q0 -16 1 -43t1 -35h543l-41 -114h-484 q25 -184 126.5 -285.5t267.5 -101.5q195 0 321 112v-149q-43 -39 -133 -67t-205 -28q-453 0 -526 519h-152z" />
<glyph unicode="&#x2122;" horiz-adv-x="1478" d="M8 1272v94h471v-94h-184v-684h-102v684h-185zM553 588l133 827l293 -645l301 645l125 -827h-94l-72 526l-260 -565l-256 565l-76 -526h-94z" />
<glyph unicode="&#x25fc;" horiz-adv-x="849" d="M0 0v850h850v-850h-850z" />
</font>
</defs>
</svg>
